<?xml version="1.0" encoding="UTF-8" standalone="no"?>
<!DOCTYPE svg PUBLIC "-//W3C//DTD SVG 1.1//EN"
 "http://www.w3.org/Graphics/SVG/1.1/DTD/svg11.dtd">
<!-- Generated by graphviz version 2.38.0 (20140413.2041)
 -->
<!-- Title: pt Pages: 1 -->
<svg width="448pt" height="202pt"
 viewBox="0.00 0.00 448.00 202.00" xmlns="http://www.w3.org/2000/svg" xmlns:xlink="http://www.w3.org/1999/xlink">
<g id="graph0" class="graph" transform="scale(1 1) rotate(0) translate(4 198)">
<title>pt</title>
<!-- 3a072b60&#45;5df4&#45;4103&#45;9b21&#45;997d4a24cfdc -->
<g id="node1" class="node"><title>3a072b60&#45;5df4&#45;4103&#45;9b21&#45;997d4a24cfdc</title>
<ellipse fill="none" stroke="black" cx="220" cy="-172.5" rx="21.5" ry="21.5"/>
<text text-anchor="middle" x="220" y="-168.8" font-family="Times New Roman,serif" font-size="14.00">&#45;&gt;</text>
</g>
<!-- 308e54a4&#45;2d85&#45;46e6&#45;b2bc&#45;6367d86a5ab4 -->
<g id="node2" class="node"><title>308e54a4&#45;2d85&#45;46e6&#45;b2bc&#45;6367d86a5ab4</title>
<polygon fill="none" stroke="black" points="180,-111.5 0,-111.5 0,-75.5 180,-75.5 180,-111.5"/>
<text text-anchor="middle" x="90" y="-91.6" font-family="Times New Roman,serif" font-size="8.00">a</text>
</g>
<!-- 3a072b60&#45;5df4&#45;4103&#45;9b21&#45;997d4a24cfdc&#45;&gt;308e54a4&#45;2d85&#45;46e6&#45;b2bc&#45;6367d86a5ab4 -->
<g id="edge1" class="edge"><title>3a072b60&#45;5df4&#45;4103&#45;9b21&#45;997d4a24cfdc&#45;&gt;308e54a4&#45;2d85&#45;46e6&#45;b2bc&#45;6367d86a5ab4</title>
<path fill="none" stroke="black" d="M201.924,-160.793C182.786,-149.458 152.028,-131.24 127.594,-116.767"/>
<polygon fill="black" stroke="black" points="129.299,-113.71 118.912,-111.625 125.732,-119.732 129.299,-113.71"/>
</g>
<!-- 8cd45116&#45;bd1c&#45;45eb&#45;9daa&#45;d6ed81d54dcf -->
<g id="node3" class="node"><title>8cd45116&#45;bd1c&#45;45eb&#45;9daa&#45;d6ed81d54dcf</title>
<ellipse fill="none" stroke="black" cx="220" cy="-93.5" rx="21.5" ry="21.5"/>
<text text-anchor="middle" x="220" y="-89.8" font-family="Times New Roman,serif" font-size="14.00">+</text>
</g>
<!-- 3a072b60&#45;5df4&#45;4103&#45;9b21&#45;997d4a24cfdc&#45;&gt;8cd45116&#45;bd1c&#45;45eb&#45;9daa&#45;d6ed81d54dcf -->
<g id="edge2" class="edge"><title>3a072b60&#45;5df4&#45;4103&#45;9b21&#45;997d4a24cfdc&#45;&gt;8cd45116&#45;bd1c&#45;45eb&#45;9daa&#45;d6ed81d54dcf</title>
<path fill="none" stroke="black" d="M220,-150.865C220,-143.011 220,-133.882 220,-125.288"/>
<polygon fill="black" stroke="black" points="223.5,-125.192 220,-115.192 216.5,-125.192 223.5,-125.192"/>
</g>
<!-- 54f1c723&#45;e238&#45;461a&#45;9ab0&#45;a5a2e4a363d1 -->
<g id="node6" class="node"><title>54f1c723&#45;e238&#45;461a&#45;9ab0&#45;a5a2e4a363d1</title>
<polygon fill="none" stroke="black" points="440,-111.5 260,-111.5 260,-75.5 440,-75.5 440,-111.5"/>
<text text-anchor="middle" x="350" y="-91.6" font-family="Times New Roman,serif" font-size="8.00">d</text>
</g>
<!-- 3a072b60&#45;5df4&#45;4103&#45;9b21&#45;997d4a24cfdc&#45;&gt;54f1c723&#45;e238&#45;461a&#45;9ab0&#45;a5a2e4a363d1 -->
<g id="edge5" class="edge"><title>3a072b60&#45;5df4&#45;4103&#45;9b21&#45;997d4a24cfdc&#45;&gt;54f1c723&#45;e238&#45;461a&#45;9ab0&#45;a5a2e4a363d1</title>
<path fill="none" stroke="black" d="M238.076,-160.793C257.214,-149.458 287.972,-131.24 312.406,-116.767"/>
<polygon fill="black" stroke="black" points="314.268,-119.732 321.088,-111.625 310.701,-113.71 314.268,-119.732"/>
</g>
<!-- e3c493b9&#45;fed8&#45;4cb9&#45;ab13&#45;acb8d1f5d606 -->
<g id="node4" class="node"><title>e3c493b9&#45;fed8&#45;4cb9&#45;ab13&#45;acb8d1f5d606</title>
<polygon fill="none" stroke="black" points="211,-36 31,-36 31,-0 211,-0 211,-36"/>
<text text-anchor="middle" x="121" y="-16.1" font-family="Times New Roman,serif" font-size="8.00">b</text>
</g>
<!-- 8cd45116&#45;bd1c&#45;45eb&#45;9daa&#45;d6ed81d54dcf&#45;&gt;e3c493b9&#45;fed8&#45;4cb9&#45;ab13&#45;acb8d1f5d606 -->
<g id="edge3" class="edge"><title>8cd45116&#45;bd1c&#45;45eb&#45;9daa&#45;d6ed81d54dcf&#45;&gt;e3c493b9&#45;fed8&#45;4cb9&#45;ab13&#45;acb8d1f5d606</title>
<path fill="none" stroke="black" d="M203.206,-80.0317C189.395,-69.7778 169.434,-54.9589 152.641,-42.4912"/>
<polygon fill="black" stroke="black" points="154.313,-39.3732 144.197,-36.2223 150.14,-44.9936 154.313,-39.3732"/>
</g>
<!-- 73b21655&#45;4369&#45;4ccc&#45;9013&#45;1760b7bd90b0 -->
<g id="node5" class="node"><title>73b21655&#45;4369&#45;4ccc&#45;9013&#45;1760b7bd90b0</title>
<polygon fill="none" stroke="black" points="409,-36 229,-36 229,-0 409,-0 409,-36"/>
<text text-anchor="middle" x="319" y="-16.1" font-family="Times New Roman,serif" font-size="8.00">c</text>
</g>
<!-- 8cd45116&#45;bd1c&#45;45eb&#45;9daa&#45;d6ed81d54dcf&#45;&gt;73b21655&#45;4369&#45;4ccc&#45;9013&#45;1760b7bd90b0 -->
<g id="edge4" class="edge"><title>8cd45116&#45;bd1c&#45;45eb&#45;9daa&#45;d6ed81d54dcf&#45;&gt;73b21655&#45;4369&#45;4ccc&#45;9013&#45;1760b7bd90b0</title>
<path fill="none" stroke="black" d="M236.794,-80.0317C250.605,-69.7778 270.566,-54.9589 287.359,-42.4912"/>
<polygon fill="black" stroke="black" points="289.86,-44.9936 295.803,-36.2223 285.687,-39.3732 289.86,-44.9936"/>
</g>
</g>
</svg>
