<?xml version="1.0" encoding="UTF-8" standalone="no"?>
<!DOCTYPE svg PUBLIC "-//W3C//DTD SVG 1.1//EN"
 "http://www.w3.org/Graphics/SVG/1.1/DTD/svg11.dtd">
<!-- Generated by graphviz version 2.38.0 (20140413.2041)
 -->
<!-- Title: pt Pages: 1 -->
<svg width="448pt" height="202pt"
 viewBox="0.00 0.00 448.00 202.00" xmlns="http://www.w3.org/2000/svg" xmlns:xlink="http://www.w3.org/1999/xlink">
<g id="graph0" class="graph" transform="scale(1 1) rotate(0) translate(4 198)">
<title>pt</title>
<!-- a280559a&#45;1482&#45;402e&#45;906c&#45;73d9fce94c9b -->
<g id="node1" class="node"><title>a280559a&#45;1482&#45;402e&#45;906c&#45;73d9fce94c9b</title>
<ellipse fill="none" stroke="black" cx="220" cy="-172.5" rx="21.5" ry="21.5"/>
<text text-anchor="middle" x="220" y="-168.8" font-family="Times New Roman,serif" font-size="14.00">&#45;&gt;</text>
</g>
<!-- d7b8cf23&#45;b6df&#45;494d&#45;b9ee&#45;c535e49c5472 -->
<g id="node2" class="node"><title>d7b8cf23&#45;b6df&#45;494d&#45;b9ee&#45;c535e49c5472</title>
<polygon fill="none" stroke="black" points="180,-111.5 0,-111.5 0,-75.5 180,-75.5 180,-111.5"/>
<text text-anchor="middle" x="90" y="-91.6" font-family="Times New Roman,serif" font-size="8.00">a</text>
</g>
<!-- a280559a&#45;1482&#45;402e&#45;906c&#45;73d9fce94c9b&#45;&gt;d7b8cf23&#45;b6df&#45;494d&#45;b9ee&#45;c535e49c5472 -->
<g id="edge1" class="edge"><title>a280559a&#45;1482&#45;402e&#45;906c&#45;73d9fce94c9b&#45;&gt;d7b8cf23&#45;b6df&#45;494d&#45;b9ee&#45;c535e49c5472</title>
<path fill="none" stroke="black" d="M201.924,-160.793C182.786,-149.458 152.028,-131.24 127.594,-116.767"/>
<polygon fill="black" stroke="black" points="129.299,-113.71 118.912,-111.625 125.732,-119.732 129.299,-113.71"/>
</g>
<!-- ee655edf&#45;687f&#45;4379&#45;a4b1&#45;cfde6417e6d5 -->
<g id="node3" class="node"><title>ee655edf&#45;687f&#45;4379&#45;a4b1&#45;cfde6417e6d5</title>
<ellipse fill="none" stroke="black" cx="220" cy="-93.5" rx="21.5" ry="21.5"/>
<text text-anchor="middle" x="220" y="-89.8" font-family="Times New Roman,serif" font-size="14.00">+</text>
</g>
<!-- a280559a&#45;1482&#45;402e&#45;906c&#45;73d9fce94c9b&#45;&gt;ee655edf&#45;687f&#45;4379&#45;a4b1&#45;cfde6417e6d5 -->
<g id="edge2" class="edge"><title>a280559a&#45;1482&#45;402e&#45;906c&#45;73d9fce94c9b&#45;&gt;ee655edf&#45;687f&#45;4379&#45;a4b1&#45;cfde6417e6d5</title>
<path fill="none" stroke="black" d="M220,-150.865C220,-143.011 220,-133.882 220,-125.288"/>
<polygon fill="black" stroke="black" points="223.5,-125.192 220,-115.192 216.5,-125.192 223.5,-125.192"/>
</g>
<!-- de310f23&#45;43aa&#45;4f40&#45;a209&#45;576263f1adc6 -->
<g id="node6" class="node"><title>de310f23&#45;43aa&#45;4f40&#45;a209&#45;576263f1adc6</title>
<polygon fill="none" stroke="black" points="440,-111.5 260,-111.5 260,-75.5 440,-75.5 440,-111.5"/>
<text text-anchor="middle" x="350" y="-91.6" font-family="Times New Roman,serif" font-size="8.00">d</text>
</g>
<!-- a280559a&#45;1482&#45;402e&#45;906c&#45;73d9fce94c9b&#45;&gt;de310f23&#45;43aa&#45;4f40&#45;a209&#45;576263f1adc6 -->
<g id="edge5" class="edge"><title>a280559a&#45;1482&#45;402e&#45;906c&#45;73d9fce94c9b&#45;&gt;de310f23&#45;43aa&#45;4f40&#45;a209&#45;576263f1adc6</title>
<path fill="none" stroke="black" d="M238.076,-160.793C257.214,-149.458 287.972,-131.24 312.406,-116.767"/>
<polygon fill="black" stroke="black" points="314.268,-119.732 321.088,-111.625 310.701,-113.71 314.268,-119.732"/>
</g>
<!-- 84c7b3b1&#45;3135&#45;43bd&#45;991d&#45;761e8c7964b3 -->
<g id="node4" class="node"><title>84c7b3b1&#45;3135&#45;43bd&#45;991d&#45;761e8c7964b3</title>
<polygon fill="none" stroke="black" points="211,-36 31,-36 31,-0 211,-0 211,-36"/>
<text text-anchor="middle" x="121" y="-16.1" font-family="Times New Roman,serif" font-size="8.00">b</text>
</g>
<!-- ee655edf&#45;687f&#45;4379&#45;a4b1&#45;cfde6417e6d5&#45;&gt;84c7b3b1&#45;3135&#45;43bd&#45;991d&#45;761e8c7964b3 -->
<g id="edge3" class="edge"><title>ee655edf&#45;687f&#45;4379&#45;a4b1&#45;cfde6417e6d5&#45;&gt;84c7b3b1&#45;3135&#45;43bd&#45;991d&#45;761e8c7964b3</title>
<path fill="none" stroke="black" d="M203.206,-80.0317C189.395,-69.7778 169.434,-54.9589 152.641,-42.4912"/>
<polygon fill="black" stroke="black" points="154.313,-39.3732 144.197,-36.2223 150.14,-44.9936 154.313,-39.3732"/>
</g>
<!-- cb2d6ea7&#45;a454&#45;40d2&#45;a38e&#45;525ce635524b -->
<g id="node5" class="node"><title>cb2d6ea7&#45;a454&#45;40d2&#45;a38e&#45;525ce635524b</title>
<polygon fill="none" stroke="black" points="409,-36 229,-36 229,-0 409,-0 409,-36"/>
<text text-anchor="middle" x="319" y="-16.1" font-family="Times New Roman,serif" font-size="8.00">c</text>
</g>
<!-- ee655edf&#45;687f&#45;4379&#45;a4b1&#45;cfde6417e6d5&#45;&gt;cb2d6ea7&#45;a454&#45;40d2&#45;a38e&#45;525ce635524b -->
<g id="edge4" class="edge"><title>ee655edf&#45;687f&#45;4379&#45;a4b1&#45;cfde6417e6d5&#45;&gt;cb2d6ea7&#45;a454&#45;40d2&#45;a38e&#45;525ce635524b</title>
<path fill="none" stroke="black" d="M236.794,-80.0317C250.605,-69.7778 270.566,-54.9589 287.359,-42.4912"/>
<polygon fill="black" stroke="black" points="289.86,-44.9936 295.803,-36.2223 285.687,-39.3732 289.86,-44.9936"/>
</g>
</g>
</svg>
